<svg width="45" height="45" viewBox="0 0 45 45" fill="none" xmlns="http://www.w3.org/2000/svg">
<path d="M7.77319 7.78L0.339374 15.2138C0.339374 15.2138 0.720332 16.0083 3.2672 15.0288C3.52791 14.9285 3.80307 14.818 4.08952 14.7031L4.09031 14.7027L4.09033 14.7027C6.60203 13.6945 9.98052 12.3383 12.0833 14.441L14.0589 16.4167C10.2867 15.4685 6.17086 16.4352 3.2706 19.3354C-0.36863 22.9747 -0.963386 28.5278 1.44921 32.9145L1.43611 32.9247C1.43611 32.9247 1.71963 33.4914 2.35617 34.3178C2.69074 34.7631 3.06087 35.1906 3.46651 35.5962C3.48728 35.617 3.50811 35.6376 3.529 35.6582C6.25192 38.4166 11.8831 42.0182 21.8572 40.1286C37.2181 37.2185 45 45 45 45C45 45 37.2185 37.2181 40.1286 21.8572C42.0182 11.8833 38.4168 6.25212 35.6584 3.52913C35.6377 3.5082 35.617 3.48733 35.5962 3.46651C35.1905 3.06083 34.763 2.69067 34.3177 2.35607C33.4913 1.7196 32.9247 1.43611 32.9247 1.43611L32.9145 1.44921C28.5278 -0.963386 22.9747 -0.368627 19.3354 3.2706C16.4352 6.17086 15.4685 10.2867 16.4167 14.0589L14.441 12.0833C12.3383 9.98052 13.6944 6.60217 14.7027 4.09046L14.7027 4.09044L14.703 4.08963C14.818 3.80323 14.9285 3.52786 15.0288 3.26719C16.0083 0.720329 15.2138 0.33937 15.2138 0.33937L7.77319 7.78Z" fill="#E0E0E0"/>
</svg>
